<?xml version="1.0" encoding="utf-8"?>
<!-- Generator: Adobe Illustrator 21.0.2, SVG Export Plug-In . SVG Version: 6.00 Build 0)  -->
<svg version="1.1" id="Layer_1" xmlns="http://www.w3.org/2000/svg" xmlns:xlink="http://www.w3.org/1999/xlink" x="0px" y="0px"
	 viewBox="0 0 500 500" style="enable-background:new 0 0 500 500;" xml:space="preserve">
<g style="opacity: 0.3;">
	<path d="M249.5,490.3c-64,0-124.3-24.9-169.5-70.2C34.7,374.8,9.7,314.6,9.7,250.5S34.7,126.3,80,81
		c45.3-45.3,105.5-70.2,169.5-70.2S373.8,35.7,419.1,81c45.3,45.3,70.2,105.5,70.2,169.5s-24.9,124.3-70.2,169.5
		C373.8,465.3,313.6,490.3,249.5,490.3z M249.5,58.7c-105.7,0-191.8,86-191.8,191.8c0,105.7,86,191.8,191.8,191.8
		c105.7,0,191.8-86,191.8-191.8C441.3,144.8,355.3,58.7,249.5,58.7z"/>
</g>
<g>
	<path d="M489.3,250.5h-48c0-105.7-86-191.8-191.8-191.8v-48c64,0,124.3,24.9,169.5,70.2C464.3,126.3,489.3,186.5,489.3,250.5z"/>
</g>
</svg>
