<svg xmlns="http://www.w3.org/2000/svg" viewBox="0 0 19 19"><path d="M13.521 13.71c.162.474.243 1.027.243 1.5v3c0 .474-.323.79-.808.79-.485 0-.808-.316-.808-.79v-3.078c.08-.632-.162-1.106-.566-1.5-.243-.237-.323-.553-.162-.79.081-.316.404-.474.647-.553 2.343-.236 4.525-1.026 4.525-4.737 0-.868-.323-1.736-.97-2.447-.242-.237-.242-.553-.161-.79.242-.631.242-1.263.08-1.894-.403.079-1.05.316-2.1 1.026-.162.158-.405.158-.647.08a9.885 9.885 0 0 0-5.253 0c-.242.078-.484.078-.727-.08-.97-.71-1.697-.947-2.1-1.026-.163.631-.163 1.263.08 1.895.08.315.08.631-.162.79a3.626 3.626 0 0 0-.97 2.446c0 3.711 2.182 4.5 4.526 4.737.323 0 .566.237.646.553.081.316 0 .632-.161.79-.404.394-.566.868-.566 1.42v3.08c0 .473-.323.79-.808.79-.485 0-.808-.317-.808-.79v-1.343c-2.424.395-3.475-.947-4.202-1.815-.323-.395-.566-.71-.89-.79-.403-.079-.726-.552-.565-.947.081-.395.566-.71.97-.553.808.237 1.293.79 1.778 1.342.646.869 1.212 1.5 2.909 1.184v-.078c0-.474.08-1.027.242-1.422-2.262-.473-4.687-1.894-4.687-6.079 0-1.184.404-2.29 1.132-3.157-.324-1.106-.243-2.132.242-3.158a.72.72 0 0 1 .485-.474c.323-.08 1.374-.237 3.556 1.105 1.777-.395 3.636-.395 5.333 0C14.895.605 16.026.763 16.35.842a.72.72 0 0 1 .485.474c.404 1.026.484 2.052.242 3.079a4.889 4.889 0 0 1 1.131 3.157c0 4.5-2.747 5.764-4.687 6.158z"/></svg>